<svg width="713" height="608" viewBox="0 0 713 608" fill="none" xmlns="http://www.w3.org/2000/svg">
<g clip-path="url(#clip0_759_57293)">
<rect width="713" height="608" fill="#11132C"/>
<path d="M552.701 514.943C528.141 502.745 511.599 473.046 508.663 460.063C499.159 418.039 529.805 490.748 615.529 485.438C657.41 482.843 713 440 713 440V518.483C713 518.483 680.266 495.692 656.044 490.748C615.435 482.461 589.851 533.393 552.701 514.943Z" fill="url(#paint0_linear_759_57293)" fill-opacity="0.2"/>
<path d="M142.972 479.82C101.711 478.424 93.9453 440.147 45.0578 440.148C12.1309 440.149 0 465.159 0 465.159V519.491C0 519.491 118.079 581.386 193.22 519.491C259.182 465.159 372.689 518.182 350.065 487.582C327.44 456.981 289.369 442.707 251.284 440.148C206.315 437.127 188.018 481.344 142.972 479.82Z" fill="url(#paint1_linear_759_57293)" fill-opacity="0.2"/>
<circle opacity="0.8" cx="688" cy="144" r="2" fill="white"/>
<circle opacity="0.8" cx="688" cy="333" r="2" fill="white"/>
<circle opacity="0.8" cx="677" cy="272" r="2" fill="white"/>
<circle opacity="0.8" cx="53" cy="262" r="2" fill="white"/>
<circle opacity="0.8" cx="674.5" cy="126.5" r="1.5" fill="white"/>
<circle opacity="0.8" cx="30.5" cy="218.5" r="1.5" fill="white"/>
<circle opacity="0.8" cx="30.5" cy="329.5" r="1.5" fill="white"/>
<path d="M694.723 249.438C694.805 248.866 695.63 248.866 695.713 249.438L696.194 252.78C696.22 252.961 696.342 253.113 696.514 253.177L698.216 253.812C698.649 253.974 698.649 254.587 698.216 254.749L696.51 255.386C696.341 255.449 696.219 255.599 696.191 255.777L695.712 258.841C695.623 259.405 694.812 259.405 694.724 258.841L694.244 255.776C694.217 255.598 694.095 255.449 693.927 255.386L692.239 254.749C691.808 254.586 691.808 253.976 692.239 253.813L693.923 253.177C694.094 253.113 694.216 252.961 694.241 252.781L694.723 249.438Z" fill="white"/>
<path d="M45.3367 171.876C45.5013 170.732 47.1517 170.732 47.3163 171.876L47.7693 175.023C47.8214 175.385 48.0668 175.689 48.4094 175.817L50.1966 176.484C51.0636 176.808 51.0636 178.034 50.1966 178.358L48.4017 179.028C48.0633 179.155 47.8193 179.454 47.7635 179.811L47.3145 182.682C47.1382 183.809 45.5148 183.809 45.3385 182.682L44.8891 179.808C44.8335 179.453 44.591 179.154 44.2543 179.027L42.4785 178.357C41.6161 178.031 41.6161 176.811 42.4785 176.486L44.2466 175.818C44.5875 175.69 44.8314 175.386 44.8833 175.025L45.3367 171.876Z" fill="white"/>
<g clip-path="url(#clip1_759_57293)">
<rect x="60" y="119" width="593" height="305" rx="15" fill="white"/>
<g filter="url(#filter0_d_759_57293)">
<g clip-path="url(#clip2_759_57293)">
<rect width="1168" height="306" transform="translate(60 119)" fill="white"/>
<rect width="1168" height="32" transform="translate(60 119)" fill="#472AC4"/>
<circle cx="76" cy="135" r="6" fill="#ED6A5E"/>
<circle cx="96" cy="135" r="6" fill="#F4BF4F"/>
<circle cx="116" cy="135" r="6" fill="#62C554"/>
<mask id="path-18-inside-1_759_57293" fill="white">
<path d="M60 151H1228V185H60V151Z"/>
</mask>
<path d="M1228 185V184H60V185V186H1228V185Z" fill="#E0E0E5" mask="url(#path-18-inside-1_759_57293)"/>
<path d="M76.864 173.12C75.64 173.12 74.5 172.736 73.708 172.004L74.344 170.864C75.1 171.488 75.94 171.716 76.756 171.716C77.872 171.716 78.52 171.332 78.52 170.648C78.52 169.928 77.776 169.616 76.66 169.304L76.156 169.16C74.692 168.764 73.6 168.152 73.6 166.7C73.6 165.08 74.908 164 76.888 164C78.028 164 79.036 164.336 79.888 165.02L79.132 166.196C78.472 165.668 77.764 165.404 76.9 165.404C75.964 165.404 75.352 165.8 75.352 166.424C75.352 167.132 76.06 167.384 76.936 167.636L77.452 167.78C78.82 168.152 80.272 168.896 80.272 170.492C80.272 172.064 78.904 173.12 76.864 173.12ZM87.9129 164.12V165.524H85.2009V173H83.5089V165.524H80.8089V164.12H87.9129ZM94.5111 173L93.7911 171.236H89.6991L88.9791 173H87.1671L90.9591 164.12H92.5311L96.3231 173H94.5111ZM90.2751 169.832H93.2271L91.7511 166.22L90.2751 169.832ZM102.957 165.524H99.0449V168.044H102.405V169.436H99.0449V173H97.3529V164.12H102.957V165.524ZM110.023 165.524H106.111V168.044H109.471V169.436H106.111V173H104.419V164.12H110.023V165.524ZM124.357 173H122.665L122.317 166.94L119.605 173H118.669L115.957 166.964L115.609 173H113.917L114.517 164.072H116.377L119.137 170.228L121.897 164.072H123.757L124.357 173ZM127.885 171.596H132.325V173H126.193V164.12H132.229V165.524H127.885V167.804H131.845V169.196H127.885V171.596ZM144.161 173H142.469L142.121 166.94L139.409 173H138.473L135.761 166.964L135.413 173H133.721L134.321 164.072H136.181L138.941 170.228L141.701 164.072H143.561L144.161 173ZM151.277 168.296C152.309 168.644 152.945 169.412 152.945 170.42C152.945 171.968 151.721 173 149.849 173H145.997V164.12H149.801C151.397 164.12 152.465 165.056 152.465 166.448C152.465 167.252 152.033 167.888 151.277 168.296ZM147.689 165.524V167.744H149.393C150.197 167.744 150.725 167.3 150.725 166.628C150.725 165.968 150.185 165.524 149.405 165.524H147.689ZM149.741 171.596C150.617 171.596 151.205 171.104 151.205 170.372C151.205 169.628 150.617 169.136 149.765 169.136H147.689V171.596H149.741ZM156.186 171.596H160.626V173H154.494V164.12H160.53V165.524H156.186V167.804H160.146V169.196H156.186V171.596ZM167.83 173L165.802 169.736H163.99V173H162.298V164.12H166.018C167.89 164.12 169.126 165.248 169.126 166.928C169.126 168.08 168.514 168.968 167.482 169.412L169.822 173H167.83ZM163.99 165.524V168.332H165.706C166.714 168.332 167.386 167.768 167.386 166.928C167.386 166.088 166.762 165.524 165.826 165.524H163.99Z" fill="#5D5C64"/>
<path d="M216.8 173.12C216.068 173.12 215.468 172.88 215.048 172.412L215.492 171.284C215.78 171.584 216.128 171.716 216.476 171.716C217.076 171.716 217.436 171.344 217.436 170.78V164.12H219.128V171.08C219.128 172.304 218.18 173.12 216.8 173.12ZM227.335 173L226.615 171.236H222.523L221.803 173H219.991L223.783 164.12H225.355L229.147 173H227.335ZM223.099 169.832H226.051L224.575 166.22L223.099 169.832ZM230.177 173V164.12H231.233L236.825 170.132L236.789 164.12H238.481V173H237.437L231.845 166.988L231.869 173H230.177Z" fill="#5D5C64"/>
<path d="M309.16 165.524H305.248V168.044H308.608V169.436H305.248V173H303.556V164.12H309.16V165.524ZM312.314 171.596H316.754V173H310.622V164.12H316.658V165.524H312.314V167.804H316.274V169.196H312.314V171.596ZM323.707 168.296C324.739 168.644 325.375 169.412 325.375 170.42C325.375 171.968 324.151 173 322.279 173H318.427V164.12H322.231C323.827 164.12 324.895 165.056 324.895 166.448C324.895 167.252 324.463 167.888 323.707 168.296ZM320.119 165.524V167.744H321.823C322.627 167.744 323.155 167.3 323.155 166.628C323.155 165.968 322.615 165.524 321.835 165.524H320.119ZM322.171 171.596C323.047 171.596 323.635 171.104 323.635 170.372C323.635 169.628 323.047 169.136 322.195 169.136H320.119V171.596H322.171Z" fill="#5D5C64"/>
<path d="M397.72 173H396.028L395.68 166.94L392.968 173H392.032L389.32 166.964L388.972 173H387.28L387.88 164.072H389.74L392.5 170.228L395.26 164.072H397.12L397.72 173ZM405.808 173L405.088 171.236H400.996L400.276 173H398.464L402.256 164.12H403.828L407.62 173H405.808ZM401.572 169.832H404.524L403.048 166.22L401.572 169.832ZM414.182 173L412.154 169.736H410.342V173H408.65V164.12H412.37C414.242 164.12 415.478 165.248 415.478 166.928C415.478 168.08 414.866 168.968 413.834 169.412L416.174 173H414.182ZM410.342 165.524V168.332H412.058C413.066 168.332 413.738 167.768 413.738 166.928C413.738 166.088 413.114 165.524 412.178 165.524H410.342Z" fill="#5D5C64"/>
<path d="M482.808 173L482.088 171.236H477.996L477.276 173H475.464L479.256 164.12H480.828L484.62 173H482.808ZM478.572 169.832H481.524L480.048 166.22L478.572 169.832ZM489.25 164.12C491.122 164.12 492.358 165.272 492.358 166.988C492.358 168.776 491.098 169.976 489.19 169.976H487.342V173H485.65V164.12H489.25ZM489.07 168.572C490.03 168.572 490.618 167.96 490.618 167.048C490.618 166.136 490.006 165.524 489.07 165.524H487.342V168.572H489.07ZM499.279 173L497.251 169.736H495.439V173H493.747V164.12H497.467C499.339 164.12 500.575 165.248 500.575 166.928C500.575 168.08 499.963 168.968 498.931 169.412L501.271 173H499.279ZM495.439 165.524V168.332H497.155C498.163 168.332 498.835 167.768 498.835 166.928C498.835 166.088 498.211 165.524 497.275 165.524H495.439Z" fill="#5D5C64"/>
<path d="M572.22 173H570.528L570.18 166.94L567.468 173H566.532L563.82 166.964L563.472 173H561.78L562.38 164.072H564.24L567 170.228L569.76 164.072H571.62L572.22 173ZM580.308 173L579.588 171.236H575.496L574.776 173H572.964L576.756 164.12H578.328L582.12 173H580.308ZM576.072 169.832H579.024L577.548 166.22L576.072 169.832ZM587.563 164.12H589.363L586.195 169.724V173H584.503V169.724L581.323 164.12H583.135L585.355 168.224L587.563 164.12Z" fill="#5D5C64"/>
<path d="M651.3 173.12C650.568 173.12 649.968 172.88 649.548 172.412L649.992 171.284C650.28 171.584 650.628 171.716 650.976 171.716C651.576 171.716 651.936 171.344 651.936 170.78V164.12H653.628V171.08C653.628 172.304 652.68 173.12 651.3 173.12ZM659.469 173.12C657.129 173.12 655.569 171.728 655.569 169.64V164.12H657.261V169.568C657.261 170.852 658.149 171.716 659.469 171.716C660.777 171.716 661.653 170.852 661.653 169.568V164.12H663.345V169.64C663.345 171.728 661.797 173.12 659.469 173.12ZM665.345 173V164.12H666.401L671.993 170.132L671.957 164.12H673.649V173H672.605L667.013 166.988L667.037 173H665.345Z" fill="#5D5C64"/>
<path d="M71.8 214.12C71.068 214.12 70.468 213.88 70.048 213.412L70.492 212.284C70.78 212.584 71.128 212.716 71.476 212.716C72.076 212.716 72.436 212.344 72.436 211.78V205.12H74.128V212.08C74.128 213.304 73.18 214.12 71.8 214.12ZM79.0451 214.12C76.9691 214.12 75.5771 212.776 75.5771 210.76C75.5771 208.756 76.9691 207.412 79.0451 207.412C81.1091 207.412 82.5011 208.756 82.5011 210.76C82.5011 212.776 81.1091 214.12 79.0451 214.12ZM79.0451 212.716C80.1011 212.716 80.8091 211.936 80.8091 210.76C80.8091 209.584 80.1011 208.804 79.0451 208.804C77.9771 208.804 77.2691 209.584 77.2691 210.76C77.2691 211.936 77.9771 212.716 79.0451 212.716ZM87.4969 207.412C89.0449 207.412 90.0769 208.42 90.0769 209.932V214H88.4449V210.196C88.4449 209.356 87.8449 208.804 86.9329 208.804C86.0209 208.804 85.4209 209.356 85.4209 210.196V214H83.7889V204.64H85.4209V208.312C85.9129 207.712 86.6569 207.412 87.4969 207.412ZM95.3602 207.412C96.9082 207.412 97.9402 208.42 97.9402 209.932V214H96.3082V210.196C96.3082 209.356 95.7082 208.804 94.7962 208.804C93.8842 208.804 93.2842 209.356 93.2842 210.196V214H91.6522V207.532H93.2242L93.2482 208.348C93.7402 207.736 94.4962 207.412 95.3602 207.412ZM105.516 214.12C104.292 214.12 103.152 213.736 102.36 213.004L102.996 211.864C103.752 212.488 104.592 212.716 105.408 212.716C106.524 212.716 107.172 212.332 107.172 211.648C107.172 210.928 106.428 210.616 105.312 210.304L104.808 210.16C103.344 209.764 102.252 209.152 102.252 207.7C102.252 206.08 103.56 205 105.54 205C106.68 205 107.688 205.336 108.54 206.02L107.784 207.196C107.124 206.668 106.416 206.404 105.552 206.404C104.616 206.404 104.004 206.8 104.004 207.424C104.004 208.132 104.712 208.384 105.588 208.636L106.104 208.78C107.472 209.152 108.924 209.896 108.924 211.492C108.924 213.064 107.556 214.12 105.516 214.12ZM117.857 207.412C119.429 207.412 120.485 208.42 120.485 209.932V214H118.853V210.196C118.853 209.356 118.325 208.804 117.521 208.804C116.729 208.804 116.201 209.356 116.201 210.196V214H114.569V210.196C114.569 209.356 114.041 208.804 113.237 208.804C112.445 208.804 111.917 209.356 111.917 210.196V214H110.285V207.532H111.857L111.881 208.3C112.337 207.712 113.021 207.412 113.813 207.412C114.665 207.412 115.349 207.772 115.769 208.384C116.237 207.748 116.993 207.412 117.857 207.412ZM122.902 206.476C122.338 206.476 121.93 206.08 121.93 205.516C121.93 204.952 122.338 204.544 122.902 204.544C123.466 204.544 123.862 204.952 123.862 205.516C123.862 206.08 123.466 206.476 122.902 206.476ZM122.086 214V207.532H123.718V214H122.086ZM128.355 212.716C128.727 212.716 129.099 212.656 129.471 212.5V213.82C128.979 214.024 128.403 214.12 127.827 214.12C126.639 214.12 125.835 213.304 125.835 212.08V208.864H124.767V207.532H125.835V205.636H127.467V207.532H129.375V208.864H127.467V211.744C127.467 212.332 127.827 212.716 128.355 212.716ZM134.266 207.412C135.814 207.412 136.846 208.42 136.846 209.932V214H135.214V210.196C135.214 209.356 134.614 208.804 133.702 208.804C132.79 208.804 132.19 209.356 132.19 210.196V214H130.558V204.64H132.19V208.312C132.682 207.712 133.426 207.412 134.266 207.412Z" fill="#5D5C64"/>
<rect width="87" height="48" transform="translate(184 185)" fill="#FFF5F5"/>
<mask id="mask0_759_57293" style="mask-type:alpha" maskUnits="userSpaceOnUse" x="215" y="197" width="25" height="24">
<rect x="215.5" y="197" width="24" height="24" fill="#D9D9D9"/>
</mask>
<g mask="url(#mask0_759_57293)">
<path d="M223.9 214L227.5 210.4L231.1 214L232.5 212.6L228.9 209L232.5 205.4L231.1 204L227.5 207.6L223.9 204L222.5 205.4L226.1 209L222.5 212.6L223.9 214ZM227.5 219C226.117 219 224.817 218.737 223.6 218.212C222.383 217.687 221.325 216.975 220.425 216.075C219.525 215.175 218.813 214.117 218.288 212.9C217.762 211.683 217.5 210.383 217.5 209C217.5 207.617 217.762 206.317 218.288 205.1C218.813 203.883 219.525 202.825 220.425 201.925C221.325 201.025 222.383 200.313 223.6 199.788C224.817 199.262 226.117 199 227.5 199C228.883 199 230.183 199.262 231.4 199.788C232.617 200.313 233.675 201.025 234.575 201.925C235.475 202.825 236.187 203.883 236.712 205.1C237.237 206.317 237.5 207.617 237.5 209C237.5 210.383 237.237 211.683 236.712 212.9C236.187 214.117 235.475 215.175 234.575 216.075C233.675 216.975 232.617 217.687 231.4 218.212C230.183 218.737 228.883 219 227.5 219Z" fill="#FBA9A9"/>
</g>
<rect width="87" height="48" transform="translate(271 185)" fill="#F5FFF8"/>
<mask id="mask1_759_57293" style="mask-type:alpha" maskUnits="userSpaceOnUse" x="302" y="197" width="25" height="24">
<rect x="302.5" y="197" width="24" height="24" fill="#D9D9D9"/>
</mask>
<g mask="url(#mask1_759_57293)">
<path d="M313.1 213.6L320.15 206.55L318.75 205.15L313.1 210.8L310.25 207.95L308.85 209.35L313.1 213.6ZM314.5 219C313.117 219 311.817 218.737 310.6 218.212C309.383 217.687 308.325 216.975 307.425 216.075C306.525 215.175 305.813 214.117 305.288 212.9C304.762 211.683 304.5 210.383 304.5 209C304.5 207.617 304.762 206.317 305.288 205.1C305.813 203.883 306.525 202.825 307.425 201.925C308.325 201.025 309.383 200.313 310.6 199.788C311.817 199.262 313.117 199 314.5 199C315.883 199 317.183 199.262 318.4 199.788C319.617 200.313 320.675 201.025 321.575 201.925C322.475 202.825 323.187 203.883 323.712 205.1C324.237 206.317 324.5 207.617 324.5 209C324.5 210.383 324.237 211.683 323.712 212.9C323.187 214.117 322.475 215.175 321.575 216.075C320.675 216.975 319.617 217.687 318.4 218.212C317.183 218.737 315.883 219 314.5 219Z" fill="#00A54F"/>
</g>
<mask id="mask2_759_57293" style="mask-type:alpha" maskUnits="userSpaceOnUse" x="389" y="197" width="25" height="24">
<rect x="389.5" y="197" width="24" height="24" fill="#D9D9D9"/>
</mask>
<g mask="url(#mask2_759_57293)">
<path d="M396.5 210H406.5V208H396.5V210ZM401.5 219C400.117 219 398.817 218.737 397.6 218.212C396.383 217.687 395.325 216.975 394.425 216.075C393.525 215.175 392.813 214.117 392.288 212.9C391.762 211.683 391.5 210.383 391.5 209C391.5 207.617 391.762 206.317 392.288 205.1C392.813 203.883 393.525 202.825 394.425 201.925C395.325 201.025 396.383 200.313 397.6 199.788C398.817 199.262 400.117 199 401.5 199C402.883 199 404.183 199.262 405.4 199.788C406.617 200.313 407.675 201.025 408.575 201.925C409.475 202.825 410.187 203.883 410.712 205.1C411.237 206.317 411.5 207.617 411.5 209C411.5 210.383 411.237 211.683 410.712 212.9C410.187 214.117 409.475 215.175 408.575 216.075C407.675 216.975 406.617 217.687 405.4 218.212C404.183 218.737 402.883 219 401.5 219Z" fill="#E0E0E5"/>
</g>
<rect width="87" height="48" transform="translate(445 185)" fill="#F5FFF8"/>
<mask id="mask3_759_57293" style="mask-type:alpha" maskUnits="userSpaceOnUse" x="476" y="197" width="25" height="24">
<rect x="476.5" y="197" width="24" height="24" fill="#D9D9D9"/>
</mask>
<g mask="url(#mask3_759_57293)">
<path d="M487.1 213.6L494.15 206.55L492.75 205.15L487.1 210.8L484.25 207.95L482.85 209.35L487.1 213.6ZM488.5 219C487.117 219 485.817 218.737 484.6 218.212C483.383 217.687 482.325 216.975 481.425 216.075C480.525 215.175 479.813 214.117 479.288 212.9C478.762 211.683 478.5 210.383 478.5 209C478.5 207.617 478.762 206.317 479.288 205.1C479.813 203.883 480.525 202.825 481.425 201.925C482.325 201.025 483.383 200.313 484.6 199.788C485.817 199.262 487.117 199 488.5 199C489.883 199 491.183 199.262 492.4 199.788C493.617 200.313 494.675 201.025 495.575 201.925C496.475 202.825 497.187 203.883 497.712 205.1C498.237 206.317 498.5 207.617 498.5 209C498.5 210.383 498.237 211.683 497.712 212.9C497.187 214.117 496.475 215.175 495.575 216.075C494.675 216.975 493.617 217.687 492.4 218.212C491.183 218.737 489.883 219 488.5 219Z" fill="#00A54F"/>
</g>
<rect width="87" height="48" transform="translate(532 185)" fill="#FFF5F5"/>
<mask id="mask4_759_57293" style="mask-type:alpha" maskUnits="userSpaceOnUse" x="563" y="197" width="25" height="24">
<rect x="563.5" y="197" width="24" height="24" fill="#D9D9D9"/>
</mask>
<g mask="url(#mask4_759_57293)">
<path d="M571.9 214L575.5 210.4L579.1 214L580.5 212.6L576.9 209L580.5 205.4L579.1 204L575.5 207.6L571.9 204L570.5 205.4L574.1 209L570.5 212.6L571.9 214ZM575.5 219C574.117 219 572.817 218.737 571.6 218.212C570.383 217.687 569.325 216.975 568.425 216.075C567.525 215.175 566.813 214.117 566.288 212.9C565.762 211.683 565.5 210.383 565.5 209C565.5 207.617 565.762 206.317 566.288 205.1C566.813 203.883 567.525 202.825 568.425 201.925C569.325 201.025 570.383 200.313 571.6 199.788C572.817 199.262 574.117 199 575.5 199C576.883 199 578.183 199.262 579.4 199.788C580.617 200.313 581.675 201.025 582.575 201.925C583.475 202.825 584.187 203.883 584.712 205.1C585.237 206.317 585.5 207.617 585.5 209C585.5 210.383 585.237 211.683 584.712 212.9C584.187 214.117 583.475 215.175 582.575 216.075C581.675 216.975 580.617 217.687 579.4 218.212C578.183 218.737 576.883 219 575.5 219Z" fill="#FBA9A9"/>
</g>
<mask id="mask5_759_57293" style="mask-type:alpha" maskUnits="userSpaceOnUse" x="650" y="197" width="25" height="24">
<rect x="650.5" y="197" width="24" height="24" fill="#D9D9D9"/>
</mask>
<g mask="url(#mask5_759_57293)">
<path d="M657.5 210H667.5V208H657.5V210ZM662.5 219C661.117 219 659.817 218.737 658.6 218.212C657.383 217.687 656.325 216.975 655.425 216.075C654.525 215.175 653.813 214.117 653.288 212.9C652.762 211.683 652.5 210.383 652.5 209C652.5 207.617 652.762 206.317 653.288 205.1C653.813 203.883 654.525 202.825 655.425 201.925C656.325 201.025 657.383 200.313 658.6 199.788C659.817 199.262 661.117 199 662.5 199C663.883 199 665.183 199.262 666.4 199.788C667.617 200.313 668.675 201.025 669.575 201.925C670.475 202.825 671.187 203.883 671.712 205.1C672.237 206.317 672.5 207.617 672.5 209C672.5 210.383 672.237 211.683 671.712 212.9C671.187 214.117 670.475 215.175 669.575 216.075C668.675 216.975 667.617 217.687 666.4 218.212C665.183 218.737 663.883 219 662.5 219Z" fill="#E0E0E5"/>
</g>
<path d="M81.22 262H79.528L79.18 255.94L76.468 262H75.532L72.82 255.964L72.472 262H70.78L71.38 253.072H73.24L76 259.228L78.76 253.072H80.62L81.22 262ZM85.396 255.412C87.052 255.412 88.168 256.408 88.168 257.932V262H86.596L86.56 261.076C86.128 261.748 85.384 262.12 84.592 262.12C83.248 262.12 82.348 261.316 82.348 260.116C82.348 258.868 83.452 258.052 85.108 258.052C85.552 258.052 86.044 258.1 86.536 258.196V258.076C86.536 257.212 85.96 256.696 84.976 256.696C84.364 256.696 83.872 256.876 83.464 257.212L82.756 256.252C83.452 255.688 84.268 255.412 85.396 255.412ZM85.06 260.956C85.816 260.956 86.524 260.356 86.536 259.3C86.116 259.216 85.684 259.168 85.312 259.168C84.544 259.168 84.052 259.528 84.052 260.08C84.052 260.608 84.4 260.956 85.06 260.956ZM91.3498 256.396C91.8658 255.76 92.6818 255.412 93.7258 255.412L93.6178 256.912C92.2738 256.912 91.3858 257.56 91.3858 258.532V262H89.7538V255.532H91.3258L91.3498 256.396ZM95.6362 264.76C95.2642 264.76 94.9162 264.688 94.6762 264.58L94.8442 263.248C94.9882 263.32 95.1562 263.356 95.3602 263.356C95.8882 263.356 96.1042 263.032 96.3562 262.54L96.6802 261.856L93.9082 255.532H95.6962L97.5202 260.092L99.2242 255.532H101L97.9522 262.744C97.4362 263.992 96.8842 264.76 95.6362 264.76ZM105.187 262.12C104.455 262.12 103.855 261.88 103.435 261.412L103.879 260.284C104.167 260.584 104.515 260.716 104.863 260.716C105.463 260.716 105.823 260.344 105.823 259.78V253.12H107.515V260.08C107.515 261.304 106.567 262.12 105.187 262.12ZM112.432 262.12C110.356 262.12 108.964 260.776 108.964 258.76C108.964 256.756 110.356 255.412 112.432 255.412C114.496 255.412 115.888 256.756 115.888 258.76C115.888 260.776 114.496 262.12 112.432 262.12ZM112.432 260.716C113.488 260.716 114.196 259.936 114.196 258.76C114.196 257.584 113.488 256.804 112.432 256.804C111.364 256.804 110.656 257.584 110.656 258.76C110.656 259.936 111.364 260.716 112.432 260.716ZM120.884 255.412C122.432 255.412 123.464 256.42 123.464 257.932V262H121.832V258.196C121.832 257.356 121.232 256.804 120.32 256.804C119.408 256.804 118.808 257.356 118.808 258.196V262H117.176V255.532H118.748L118.772 256.348C119.264 255.736 120.02 255.412 120.884 255.412ZM131.135 258.664C131.135 258.892 131.111 259.156 131.087 259.348H126.407C126.527 260.26 127.007 260.836 127.955 260.836C128.615 260.836 129.155 260.536 129.539 260.068L130.799 260.704C130.223 261.568 129.203 262.12 127.979 262.12C125.999 262.12 124.679 260.8 124.679 258.808C124.679 256.768 125.963 255.412 127.907 255.412C129.839 255.412 131.135 256.708 131.135 258.664ZM127.907 256.696C127.043 256.696 126.539 257.26 126.407 258.244H129.419C129.299 257.26 128.783 256.696 127.907 256.696ZM134.535 262.12C133.551 262.12 132.675 261.868 132.087 261.352L132.699 260.368C133.311 260.728 133.923 260.848 134.559 260.848C135.159 260.848 135.567 260.596 135.567 260.2C135.567 259.804 135.111 259.588 134.463 259.42L133.923 259.276C132.831 258.988 132.087 258.568 132.087 257.548C132.087 256.264 133.095 255.412 134.631 255.412C135.603 255.412 136.431 255.616 137.067 256.048L136.383 257.116C135.867 256.828 135.315 256.696 134.739 256.696C134.151 256.696 133.743 256.912 133.743 257.284C133.743 257.668 134.151 257.848 134.715 257.992L135.255 258.148C136.359 258.436 137.235 258.94 137.235 260.08C137.235 261.304 136.155 262.12 134.535 262.12Z" fill="#5D5C64"/>
<rect width="87" height="48" transform="translate(184 233)" fill="#F5FFF8"/>
<mask id="mask6_759_57293" style="mask-type:alpha" maskUnits="userSpaceOnUse" x="215" y="245" width="25" height="24">
<rect x="215.5" y="245" width="24" height="24" fill="#D9D9D9"/>
</mask>
<g mask="url(#mask6_759_57293)">
<path d="M226.1 261.6L233.15 254.55L231.75 253.15L226.1 258.8L223.25 255.95L221.85 257.35L226.1 261.6ZM227.5 267C226.117 267 224.817 266.737 223.6 266.212C222.383 265.687 221.325 264.975 220.425 264.075C219.525 263.175 218.813 262.117 218.288 260.9C217.762 259.683 217.5 258.383 217.5 257C217.5 255.617 217.762 254.317 218.288 253.1C218.813 251.883 219.525 250.825 220.425 249.925C221.325 249.025 222.383 248.313 223.6 247.788C224.817 247.262 226.117 247 227.5 247C228.883 247 230.183 247.262 231.4 247.788C232.617 248.313 233.675 249.025 234.575 249.925C235.475 250.825 236.187 251.883 236.712 253.1C237.237 254.317 237.5 255.617 237.5 257C237.5 258.383 237.237 259.683 236.712 260.9C236.187 262.117 235.475 263.175 234.575 264.075C233.675 264.975 232.617 265.687 231.4 266.212C230.183 266.737 228.883 267 227.5 267Z" fill="#00A54F"/>
</g>
<mask id="mask7_759_57293" style="mask-type:alpha" maskUnits="userSpaceOnUse" x="302" y="245" width="25" height="24">
<rect x="302.5" y="245" width="24" height="24" fill="#D9D9D9"/>
</mask>
<g mask="url(#mask7_759_57293)">
<path d="M309.5 258H319.5V256H309.5V258ZM314.5 267C313.117 267 311.817 266.737 310.6 266.212C309.383 265.687 308.325 264.975 307.425 264.075C306.525 263.175 305.813 262.117 305.288 260.9C304.762 259.683 304.5 258.383 304.5 257C304.5 255.617 304.762 254.317 305.288 253.1C305.813 251.883 306.525 250.825 307.425 249.925C308.325 249.025 309.383 248.313 310.6 247.788C311.817 247.262 313.117 247 314.5 247C315.883 247 317.183 247.262 318.4 247.788C319.617 248.313 320.675 249.025 321.575 249.925C322.475 250.825 323.187 251.883 323.712 253.1C324.237 254.317 324.5 255.617 324.5 257C324.5 258.383 324.237 259.683 323.712 260.9C323.187 262.117 322.475 263.175 321.575 264.075C320.675 264.975 319.617 265.687 318.4 266.212C317.183 266.737 315.883 267 314.5 267Z" fill="#E0E0E5"/>
</g>
<rect width="87" height="48" transform="translate(358 233)" fill="#FFF5F5"/>
<mask id="mask8_759_57293" style="mask-type:alpha" maskUnits="userSpaceOnUse" x="389" y="245" width="25" height="24">
<rect x="389.5" y="245" width="24" height="24" fill="#D9D9D9"/>
</mask>
<g mask="url(#mask8_759_57293)">
<path d="M397.9 262L401.5 258.4L405.1 262L406.5 260.6L402.9 257L406.5 253.4L405.1 252L401.5 255.6L397.9 252L396.5 253.4L400.1 257L396.5 260.6L397.9 262ZM401.5 267C400.117 267 398.817 266.737 397.6 266.212C396.383 265.687 395.325 264.975 394.425 264.075C393.525 263.175 392.813 262.117 392.288 260.9C391.762 259.683 391.5 258.383 391.5 257C391.5 255.617 391.762 254.317 392.288 253.1C392.813 251.883 393.525 250.825 394.425 249.925C395.325 249.025 396.383 248.313 397.6 247.788C398.817 247.262 400.117 247 401.5 247C402.883 247 404.183 247.262 405.4 247.788C406.617 248.313 407.675 249.025 408.575 249.925C409.475 250.825 410.187 251.883 410.712 253.1C411.237 254.317 411.5 255.617 411.5 257C411.5 258.383 411.237 259.683 410.712 260.9C410.187 262.117 409.475 263.175 408.575 264.075C407.675 264.975 406.617 265.687 405.4 266.212C404.183 266.737 402.883 267 401.5 267Z" fill="#FBA9A9"/>
</g>
<rect width="87" height="48" transform="translate(445 233)" fill="#FFF5F5"/>
<mask id="mask9_759_57293" style="mask-type:alpha" maskUnits="userSpaceOnUse" x="476" y="245" width="25" height="24">
<rect x="476.5" y="245" width="24" height="24" fill="#D9D9D9"/>
</mask>
<g mask="url(#mask9_759_57293)">
<path d="M484.9 262L488.5 258.4L492.1 262L493.5 260.6L489.9 257L493.5 253.4L492.1 252L488.5 255.6L484.9 252L483.5 253.4L487.1 257L483.5 260.6L484.9 262ZM488.5 267C487.117 267 485.817 266.737 484.6 266.212C483.383 265.687 482.325 264.975 481.425 264.075C480.525 263.175 479.813 262.117 479.288 260.9C478.762 259.683 478.5 258.383 478.5 257C478.5 255.617 478.762 254.317 479.288 253.1C479.813 251.883 480.525 250.825 481.425 249.925C482.325 249.025 483.383 248.313 484.6 247.788C485.817 247.262 487.117 247 488.5 247C489.883 247 491.183 247.262 492.4 247.788C493.617 248.313 494.675 249.025 495.575 249.925C496.475 250.825 497.187 251.883 497.712 253.1C498.237 254.317 498.5 255.617 498.5 257C498.5 258.383 498.237 259.683 497.712 260.9C497.187 262.117 496.475 263.175 495.575 264.075C494.675 264.975 493.617 265.687 492.4 266.212C491.183 266.737 489.883 267 488.5 267Z" fill="#FBA9A9"/>
</g>
<rect width="87" height="48" transform="translate(532 233)" fill="#F5FFF8"/>
<mask id="mask10_759_57293" style="mask-type:alpha" maskUnits="userSpaceOnUse" x="563" y="245" width="25" height="24">
<rect x="563.5" y="245" width="24" height="24" fill="#D9D9D9"/>
</mask>
<g mask="url(#mask10_759_57293)">
<path d="M574.1 261.6L581.15 254.55L579.75 253.15L574.1 258.8L571.25 255.95L569.85 257.35L574.1 261.6ZM575.5 267C574.117 267 572.817 266.737 571.6 266.212C570.383 265.687 569.325 264.975 568.425 264.075C567.525 263.175 566.813 262.117 566.288 260.9C565.762 259.683 565.5 258.383 565.5 257C565.5 255.617 565.762 254.317 566.288 253.1C566.813 251.883 567.525 250.825 568.425 249.925C569.325 249.025 570.383 248.313 571.6 247.788C572.817 247.262 574.117 247 575.5 247C576.883 247 578.183 247.262 579.4 247.788C580.617 248.313 581.675 249.025 582.575 249.925C583.475 250.825 584.187 251.883 584.712 253.1C585.237 254.317 585.5 255.617 585.5 257C585.5 258.383 585.237 259.683 584.712 260.9C584.187 262.117 583.475 263.175 582.575 264.075C581.675 264.975 580.617 265.687 579.4 266.212C578.183 266.737 576.883 267 575.5 267Z" fill="#00A54F"/>
</g>
<rect width="87" height="48" transform="translate(619 233)" fill="#F5FFF8"/>
<mask id="mask11_759_57293" style="mask-type:alpha" maskUnits="userSpaceOnUse" x="650" y="245" width="25" height="24">
<rect x="650.5" y="245" width="24" height="24" fill="#D9D9D9"/>
</mask>
<g mask="url(#mask11_759_57293)">
<path d="M661.1 261.6L668.15 254.55L666.75 253.15L661.1 258.8L658.25 255.95L656.85 257.35L661.1 261.6ZM662.5 267C661.117 267 659.817 266.737 658.6 266.212C657.383 265.687 656.325 264.975 655.425 264.075C654.525 263.175 653.813 262.117 653.288 260.9C652.762 259.683 652.5 258.383 652.5 257C652.5 255.617 652.762 254.317 653.288 253.1C653.813 251.883 654.525 250.825 655.425 249.925C656.325 249.025 657.383 248.313 658.6 247.788C659.817 247.262 661.117 247 662.5 247C663.883 247 665.183 247.262 666.4 247.788C667.617 248.313 668.675 249.025 669.575 249.925C670.475 250.825 671.187 251.883 671.712 253.1C672.237 254.317 672.5 255.617 672.5 257C672.5 258.383 672.237 259.683 671.712 260.9C671.187 262.117 670.475 263.175 669.575 264.075C668.675 264.975 667.617 265.687 666.4 266.212C665.183 266.737 663.883 267 662.5 267Z" fill="#00A54F"/>
</g>
<path d="M71.8 310.12C71.068 310.12 70.468 309.88 70.048 309.412L70.492 308.284C70.78 308.584 71.128 308.716 71.476 308.716C72.076 308.716 72.436 308.344 72.436 307.78V301.12H74.128V308.08C74.128 309.304 73.18 310.12 71.8 310.12ZM78.5171 303.412C80.1731 303.412 81.2891 304.408 81.2891 305.932V310H79.7171L79.6811 309.076C79.2491 309.748 78.5051 310.12 77.7131 310.12C76.3691 310.12 75.4691 309.316 75.4691 308.116C75.4691 306.868 76.5731 306.052 78.2291 306.052C78.6731 306.052 79.1651 306.1 79.6571 306.196V306.076C79.6571 305.212 79.0811 304.696 78.0971 304.696C77.4851 304.696 76.9931 304.876 76.5851 305.212L75.8771 304.252C76.5731 303.688 77.3891 303.412 78.5171 303.412ZM78.1811 308.956C78.9371 308.956 79.6451 308.356 79.6571 307.3C79.2371 307.216 78.8051 307.168 78.4331 307.168C77.6651 307.168 77.1731 307.528 77.1731 308.08C77.1731 308.608 77.5211 308.956 78.1811 308.956ZM90.4469 303.412C92.0189 303.412 93.0749 304.42 93.0749 305.932V310H91.4429V306.196C91.4429 305.356 90.9149 304.804 90.1109 304.804C89.3189 304.804 88.7909 305.356 88.7909 306.196V310H87.1589V306.196C87.1589 305.356 86.6309 304.804 85.8269 304.804C85.0349 304.804 84.5069 305.356 84.5069 306.196V310H82.8749V303.532H84.4469L84.4709 304.3C84.9269 303.712 85.6109 303.412 86.4029 303.412C87.2549 303.412 87.9389 303.772 88.3589 304.384C88.8269 303.748 89.5829 303.412 90.4469 303.412ZM100.76 306.664C100.76 306.892 100.736 307.156 100.712 307.348H96.0319C96.1519 308.26 96.6319 308.836 97.5799 308.836C98.2399 308.836 98.7799 308.536 99.1639 308.068L100.424 308.704C99.8479 309.568 98.8279 310.12 97.6039 310.12C95.6239 310.12 94.3039 308.8 94.3039 306.808C94.3039 304.768 95.5879 303.412 97.5319 303.412C99.4639 303.412 100.76 304.708 100.76 306.664ZM97.5319 304.696C96.6679 304.696 96.1639 305.26 96.0319 306.244H99.0439C98.9239 305.26 98.4079 304.696 97.5319 304.696ZM104.16 310.12C103.176 310.12 102.3 309.868 101.712 309.352L102.324 308.368C102.936 308.728 103.548 308.848 104.184 308.848C104.784 308.848 105.192 308.596 105.192 308.2C105.192 307.804 104.736 307.588 104.088 307.42L103.548 307.276C102.456 306.988 101.712 306.568 101.712 305.548C101.712 304.264 102.72 303.412 104.256 303.412C105.228 303.412 106.056 303.616 106.692 304.048L106.008 305.116C105.492 304.828 104.94 304.696 104.364 304.696C103.776 304.696 103.368 304.912 103.368 305.284C103.368 305.668 103.776 305.848 104.34 305.992L104.88 306.148C105.984 306.436 106.86 306.94 106.86 308.08C106.86 309.304 105.78 310.12 104.16 310.12ZM116.648 305.296C117.681 305.644 118.317 306.412 118.317 307.42C118.317 308.968 117.092 310 115.221 310H111.369V301.12H115.173C116.769 301.12 117.837 302.056 117.837 303.448C117.837 304.252 117.405 304.888 116.648 305.296ZM113.061 302.524V304.744H114.765C115.569 304.744 116.097 304.3 116.097 303.628C116.097 302.968 115.557 302.524 114.777 302.524H113.061ZM115.113 308.596C115.989 308.596 116.577 308.104 116.577 307.372C116.577 306.628 115.989 306.136 115.137 306.136H113.061V308.596H115.113ZM121.233 304.396C121.749 303.76 122.565 303.412 123.609 303.412L123.501 304.912C122.157 304.912 121.269 305.56 121.269 306.532V310H119.637V303.532H121.209L121.233 304.396ZM127.338 310.12C125.262 310.12 123.87 308.776 123.87 306.76C123.87 304.756 125.262 303.412 127.338 303.412C129.402 303.412 130.794 304.756 130.794 306.76C130.794 308.776 129.402 310.12 127.338 310.12ZM127.338 308.716C128.394 308.716 129.102 307.936 129.102 306.76C129.102 305.584 128.394 304.804 127.338 304.804C126.27 304.804 125.562 305.584 125.562 306.76C125.562 307.936 126.27 308.716 127.338 308.716ZM140.269 303.532H142.057L139.681 310H138.049L136.633 305.536L135.217 310H133.585L131.209 303.532H132.997L134.509 308.14L135.961 303.532H137.305L138.757 308.14L140.269 303.532ZM146.688 303.412C148.236 303.412 149.268 304.42 149.268 305.932V310H147.636V306.196C147.636 305.356 147.036 304.804 146.124 304.804C145.212 304.804 144.612 305.356 144.612 306.196V310H142.98V303.532H144.552L144.576 304.348C145.068 303.736 145.824 303.412 146.688 303.412Z" fill="#5D5C64"/>
<mask id="mask12_759_57293" style="mask-type:alpha" maskUnits="userSpaceOnUse" x="215" y="293" width="25" height="24">
<rect x="215.5" y="293" width="24" height="24" fill="#D9D9D9"/>
</mask>
<g mask="url(#mask12_759_57293)">
<path d="M222.5 306H232.5V304H222.5V306ZM227.5 315C226.117 315 224.817 314.737 223.6 314.212C222.383 313.687 221.325 312.975 220.425 312.075C219.525 311.175 218.813 310.117 218.288 308.9C217.762 307.683 217.5 306.383 217.5 305C217.5 303.617 217.762 302.317 218.288 301.1C218.813 299.883 219.525 298.825 220.425 297.925C221.325 297.025 222.383 296.313 223.6 295.788C224.817 295.262 226.117 295 227.5 295C228.883 295 230.183 295.262 231.4 295.788C232.617 296.313 233.675 297.025 234.575 297.925C235.475 298.825 236.187 299.883 236.712 301.1C237.237 302.317 237.5 303.617 237.5 305C237.5 306.383 237.237 307.683 236.712 308.9C236.187 310.117 235.475 311.175 234.575 312.075C233.675 312.975 232.617 313.687 231.4 314.212C230.183 314.737 228.883 315 227.5 315Z" fill="#E0E0E5"/>
</g>
<rect width="87" height="48" transform="translate(271 281)" fill="#FFF5F5"/>
<mask id="mask13_759_57293" style="mask-type:alpha" maskUnits="userSpaceOnUse" x="302" y="293" width="25" height="24">
<rect x="302.5" y="293" width="24" height="24" fill="#D9D9D9"/>
</mask>
<g mask="url(#mask13_759_57293)">
<path d="M310.9 310L314.5 306.4L318.1 310L319.5 308.6L315.9 305L319.5 301.4L318.1 300L314.5 303.6L310.9 300L309.5 301.4L313.1 305L309.5 308.6L310.9 310ZM314.5 315C313.117 315 311.817 314.737 310.6 314.212C309.383 313.687 308.325 312.975 307.425 312.075C306.525 311.175 305.813 310.117 305.288 308.9C304.762 307.683 304.5 306.383 304.5 305C304.5 303.617 304.762 302.317 305.288 301.1C305.813 299.883 306.525 298.825 307.425 297.925C308.325 297.025 309.383 296.313 310.6 295.788C311.817 295.262 313.117 295 314.5 295C315.883 295 317.183 295.262 318.4 295.788C319.617 296.313 320.675 297.025 321.575 297.925C322.475 298.825 323.187 299.883 323.712 301.1C324.237 302.317 324.5 303.617 324.5 305C324.5 306.383 324.237 307.683 323.712 308.9C323.187 310.117 322.475 311.175 321.575 312.075C320.675 312.975 319.617 313.687 318.4 314.212C317.183 314.737 315.883 315 314.5 315Z" fill="#FBA9A9"/>
</g>
<rect width="87" height="48" transform="translate(358 281)" fill="#F5FFF8"/>
<mask id="mask14_759_57293" style="mask-type:alpha" maskUnits="userSpaceOnUse" x="389" y="293" width="25" height="24">
<rect x="389.5" y="293" width="24" height="24" fill="#D9D9D9"/>
</mask>
<g mask="url(#mask14_759_57293)">
<path d="M400.1 309.6L407.15 302.55L405.75 301.15L400.1 306.8L397.25 303.95L395.85 305.35L400.1 309.6ZM401.5 315C400.117 315 398.817 314.737 397.6 314.212C396.383 313.687 395.325 312.975 394.425 312.075C393.525 311.175 392.813 310.117 392.288 308.9C391.762 307.683 391.5 306.383 391.5 305C391.5 303.617 391.762 302.317 392.288 301.1C392.813 299.883 393.525 298.825 394.425 297.925C395.325 297.025 396.383 296.313 397.6 295.788C398.817 295.262 400.117 295 401.5 295C402.883 295 404.183 295.262 405.4 295.788C406.617 296.313 407.675 297.025 408.575 297.925C409.475 298.825 410.187 299.883 410.712 301.1C411.237 302.317 411.5 303.617 411.5 305C411.5 306.383 411.237 307.683 410.712 308.9C410.187 310.117 409.475 311.175 408.575 312.075C407.675 312.975 406.617 313.687 405.4 314.212C404.183 314.737 402.883 315 401.5 315Z" fill="#00A54F"/>
</g>
<rect width="87" height="48" transform="translate(445 281)" fill="#F5FFF8"/>
<mask id="mask15_759_57293" style="mask-type:alpha" maskUnits="userSpaceOnUse" x="476" y="293" width="25" height="24">
<rect x="476.5" y="293" width="24" height="24" fill="#D9D9D9"/>
</mask>
<g mask="url(#mask15_759_57293)">
<path d="M487.1 309.6L494.15 302.55L492.75 301.15L487.1 306.8L484.25 303.95L482.85 305.35L487.1 309.6ZM488.5 315C487.117 315 485.817 314.737 484.6 314.212C483.383 313.687 482.325 312.975 481.425 312.075C480.525 311.175 479.813 310.117 479.288 308.9C478.762 307.683 478.5 306.383 478.5 305C478.5 303.617 478.762 302.317 479.288 301.1C479.813 299.883 480.525 298.825 481.425 297.925C482.325 297.025 483.383 296.313 484.6 295.788C485.817 295.262 487.117 295 488.5 295C489.883 295 491.183 295.262 492.4 295.788C493.617 296.313 494.675 297.025 495.575 297.925C496.475 298.825 497.187 299.883 497.712 301.1C498.237 302.317 498.5 303.617 498.5 305C498.5 306.383 498.237 307.683 497.712 308.9C497.187 310.117 496.475 311.175 495.575 312.075C494.675 312.975 493.617 313.687 492.4 314.212C491.183 314.737 489.883 315 488.5 315Z" fill="#00A54F"/>
</g>
<mask id="mask16_759_57293" style="mask-type:alpha" maskUnits="userSpaceOnUse" x="563" y="293" width="25" height="24">
<rect x="563.5" y="293" width="24" height="24" fill="#D9D9D9"/>
</mask>
<g mask="url(#mask16_759_57293)">
<path d="M570.5 306H580.5V304H570.5V306ZM575.5 315C574.117 315 572.817 314.737 571.6 314.212C570.383 313.687 569.325 312.975 568.425 312.075C567.525 311.175 566.813 310.117 566.288 308.9C565.762 307.683 565.5 306.383 565.5 305C565.5 303.617 565.762 302.317 566.288 301.1C566.813 299.883 567.525 298.825 568.425 297.925C569.325 297.025 570.383 296.313 571.6 295.788C572.817 295.262 574.117 295 575.5 295C576.883 295 578.183 295.262 579.4 295.788C580.617 296.313 581.675 297.025 582.575 297.925C583.475 298.825 584.187 299.883 584.712 301.1C585.237 302.317 585.5 303.617 585.5 305C585.5 306.383 585.237 307.683 584.712 308.9C584.187 310.117 583.475 311.175 582.575 312.075C581.675 312.975 580.617 313.687 579.4 314.212C578.183 314.737 576.883 315 575.5 315Z" fill="#E0E0E5"/>
</g>
<mask id="mask17_759_57293" style="mask-type:alpha" maskUnits="userSpaceOnUse" x="650" y="293" width="25" height="24">
<rect x="650.5" y="293" width="24" height="24" fill="#D9D9D9"/>
</mask>
<g mask="url(#mask17_759_57293)">
<path d="M657.5 306H667.5V304H657.5V306ZM662.5 315C661.117 315 659.817 314.737 658.6 314.212C657.383 313.687 656.325 312.975 655.425 312.075C654.525 311.175 653.813 310.117 653.288 308.9C652.762 307.683 652.5 306.383 652.5 305C652.5 303.617 652.762 302.317 653.288 301.1C653.813 299.883 654.525 298.825 655.425 297.925C656.325 297.025 657.383 296.313 658.6 295.788C659.817 295.262 661.117 295 662.5 295C663.883 295 665.183 295.262 666.4 295.788C667.617 296.313 668.675 297.025 669.575 297.925C670.475 298.825 671.187 299.883 671.712 301.1C672.237 302.317 672.5 303.617 672.5 305C672.5 306.383 672.237 307.683 671.712 308.9C671.187 310.117 670.475 311.175 669.575 312.075C668.675 312.975 667.617 313.687 666.4 314.212C665.183 314.737 663.883 315 662.5 315Z" fill="#E0E0E5"/>
</g>
<path d="M77.308 358L76.588 356.236H72.496L71.776 358H69.964L73.756 349.12H75.328L79.12 358H77.308ZM73.072 354.832H76.024L74.548 351.22L73.072 354.832ZM79.9338 358V348.64H81.5658V358H79.9338ZM87.0182 351.412C88.7582 351.412 90.1142 352.768 90.1142 354.796C90.1142 356.788 88.7582 358.12 87.0182 358.12C86.0222 358.12 85.3022 357.712 84.8462 357.028L84.8102 358H83.2382V348.64H84.8702V352.468C85.3262 351.808 86.0342 351.412 87.0182 351.412ZM86.6462 356.716C87.7022 356.716 88.4222 355.936 88.4222 354.772C88.4222 353.596 87.7022 352.804 86.6462 352.804C85.5782 352.804 84.8702 353.596 84.8702 354.76C84.8702 355.936 85.5782 356.716 86.6462 356.716ZM97.4904 354.664C97.4904 354.892 97.4664 355.156 97.4424 355.348H92.7624C92.8824 356.26 93.3624 356.836 94.3104 356.836C94.9704 356.836 95.5104 356.536 95.8944 356.068L97.1544 356.704C96.5784 357.568 95.5584 358.12 94.3344 358.12C92.3544 358.12 91.0344 356.8 91.0344 354.808C91.0344 352.768 92.3184 351.412 94.2624 351.412C96.1944 351.412 97.4904 352.708 97.4904 354.664ZM94.2624 352.696C93.3984 352.696 92.8944 353.26 92.7624 354.244H95.7744C95.6544 353.26 95.1384 352.696 94.2624 352.696ZM100.338 352.396C100.854 351.76 101.67 351.412 102.714 351.412L102.606 352.912C101.262 352.912 100.374 353.56 100.374 354.532V358H98.7421V351.532H100.314L100.338 352.396ZM106.617 356.716C106.989 356.716 107.361 356.656 107.733 356.5V357.82C107.241 358.024 106.665 358.12 106.089 358.12C104.901 358.12 104.097 357.304 104.097 356.08V352.864H103.029V351.532H104.097V349.636H105.729V351.532H107.637V352.864H105.729V355.744C105.729 356.332 106.089 356.716 106.617 356.716ZM122.425 349.12H124.225L121.165 358H119.593L117.433 351.508L115.285 358H113.713L110.641 349.12H112.453L114.589 355.732L116.641 349.12H118.225L120.301 355.732L122.425 349.12ZM128.794 351.412C130.342 351.412 131.374 352.42 131.374 353.932V358H129.742V354.196C129.742 353.356 129.142 352.804 128.23 352.804C127.318 352.804 126.718 353.356 126.718 354.196V358H125.086V348.64H126.718V352.312C127.21 351.712 127.954 351.412 128.794 351.412ZM133.777 350.476C133.213 350.476 132.805 350.08 132.805 349.516C132.805 348.952 133.213 348.544 133.777 348.544C134.341 348.544 134.737 348.952 134.737 349.516C134.737 350.08 134.341 350.476 133.777 350.476ZM132.961 358V351.532H134.593V358H132.961ZM139.23 356.716C139.602 356.716 139.974 356.656 140.346 356.5V357.82C139.854 358.024 139.278 358.12 138.702 358.12C137.514 358.12 136.71 357.304 136.71 356.08V352.864H135.642V351.532H136.71V349.636H138.342V351.532H140.25V352.864H138.342V355.744C138.342 356.332 138.702 356.716 139.23 356.716ZM147.471 354.664C147.471 354.892 147.447 355.156 147.423 355.348H142.743C142.863 356.26 143.343 356.836 144.291 356.836C144.951 356.836 145.491 356.536 145.875 356.068L147.135 356.704C146.559 357.568 145.539 358.12 144.315 358.12C142.335 358.12 141.015 356.8 141.015 354.808C141.015 352.768 142.299 351.412 144.243 351.412C146.175 351.412 147.471 352.708 147.471 354.664ZM144.243 352.696C143.379 352.696 142.875 353.26 142.743 354.244H145.755C145.635 353.26 145.119 352.696 144.243 352.696Z" fill="#5D5C64"/>
<rect width="87" height="48" transform="translate(184 329)" fill="#F5FFF8"/>
<mask id="mask18_759_57293" style="mask-type:alpha" maskUnits="userSpaceOnUse" x="215" y="341" width="25" height="24">
<rect x="215.5" y="341" width="24" height="24" fill="#D9D9D9"/>
</mask>
<g mask="url(#mask18_759_57293)">
<path d="M226.1 357.6L233.15 350.55L231.75 349.15L226.1 354.8L223.25 351.95L221.85 353.35L226.1 357.6ZM227.5 363C226.117 363 224.817 362.737 223.6 362.212C222.383 361.687 221.325 360.975 220.425 360.075C219.525 359.175 218.813 358.117 218.288 356.9C217.762 355.683 217.5 354.383 217.5 353C217.5 351.617 217.762 350.317 218.288 349.1C218.813 347.883 219.525 346.825 220.425 345.925C221.325 345.025 222.383 344.313 223.6 343.788C224.817 343.262 226.117 343 227.5 343C228.883 343 230.183 343.262 231.4 343.788C232.617 344.313 233.675 345.025 234.575 345.925C235.475 346.825 236.187 347.883 236.712 349.1C237.237 350.317 237.5 351.617 237.5 353C237.5 354.383 237.237 355.683 236.712 356.9C236.187 358.117 235.475 359.175 234.575 360.075C233.675 360.975 232.617 361.687 231.4 362.212C230.183 362.737 228.883 363 227.5 363Z" fill="#00A54F"/>
</g>
<mask id="mask19_759_57293" style="mask-type:alpha" maskUnits="userSpaceOnUse" x="302" y="341" width="25" height="24">
<rect x="302.5" y="341" width="24" height="24" fill="#D9D9D9"/>
</mask>
<g mask="url(#mask19_759_57293)">
<path d="M309.5 354H319.5V352H309.5V354ZM314.5 363C313.117 363 311.817 362.737 310.6 362.212C309.383 361.687 308.325 360.975 307.425 360.075C306.525 359.175 305.813 358.117 305.288 356.9C304.762 355.683 304.5 354.383 304.5 353C304.5 351.617 304.762 350.317 305.288 349.1C305.813 347.883 306.525 346.825 307.425 345.925C308.325 345.025 309.383 344.313 310.6 343.788C311.817 343.262 313.117 343 314.5 343C315.883 343 317.183 343.262 318.4 343.788C319.617 344.313 320.675 345.025 321.575 345.925C322.475 346.825 323.187 347.883 323.712 349.1C324.237 350.317 324.5 351.617 324.5 353C324.5 354.383 324.237 355.683 323.712 356.9C323.187 358.117 322.475 359.175 321.575 360.075C320.675 360.975 319.617 361.687 318.4 362.212C317.183 362.737 315.883 363 314.5 363Z" fill="#E0E0E5"/>
</g>
<rect width="87" height="48" transform="translate(358 329)" fill="#FFF5F5"/>
<mask id="mask20_759_57293" style="mask-type:alpha" maskUnits="userSpaceOnUse" x="389" y="341" width="25" height="24">
<rect x="389.5" y="341" width="24" height="24" fill="#D9D9D9"/>
</mask>
<g mask="url(#mask20_759_57293)">
<path d="M397.9 358L401.5 354.4L405.1 358L406.5 356.6L402.9 353L406.5 349.4L405.1 348L401.5 351.6L397.9 348L396.5 349.4L400.1 353L396.5 356.6L397.9 358ZM401.5 363C400.117 363 398.817 362.737 397.6 362.212C396.383 361.687 395.325 360.975 394.425 360.075C393.525 359.175 392.813 358.117 392.288 356.9C391.762 355.683 391.5 354.383 391.5 353C391.5 351.617 391.762 350.317 392.288 349.1C392.813 347.883 393.525 346.825 394.425 345.925C395.325 345.025 396.383 344.313 397.6 343.788C398.817 343.262 400.117 343 401.5 343C402.883 343 404.183 343.262 405.4 343.788C406.617 344.313 407.675 345.025 408.575 345.925C409.475 346.825 410.187 347.883 410.712 349.1C411.237 350.317 411.5 351.617 411.5 353C411.5 354.383 411.237 355.683 410.712 356.9C410.187 358.117 409.475 359.175 408.575 360.075C407.675 360.975 406.617 361.687 405.4 362.212C404.183 362.737 402.883 363 401.5 363Z" fill="#FBA9A9"/>
</g>
<rect width="87" height="48" transform="translate(445 329)" fill="#FFF5F5"/>
<mask id="mask21_759_57293" style="mask-type:alpha" maskUnits="userSpaceOnUse" x="476" y="341" width="25" height="24">
<rect x="476.5" y="341" width="24" height="24" fill="#D9D9D9"/>
</mask>
<g mask="url(#mask21_759_57293)">
<path d="M484.9 358L488.5 354.4L492.1 358L493.5 356.6L489.9 353L493.5 349.4L492.1 348L488.5 351.6L484.9 348L483.5 349.4L487.1 353L483.5 356.6L484.9 358ZM488.5 363C487.117 363 485.817 362.737 484.6 362.212C483.383 361.687 482.325 360.975 481.425 360.075C480.525 359.175 479.813 358.117 479.288 356.9C478.762 355.683 478.5 354.383 478.5 353C478.5 351.617 478.762 350.317 479.288 349.1C479.813 347.883 480.525 346.825 481.425 345.925C482.325 345.025 483.383 344.313 484.6 343.788C485.817 343.262 487.117 343 488.5 343C489.883 343 491.183 343.262 492.4 343.788C493.617 344.313 494.675 345.025 495.575 345.925C496.475 346.825 497.187 347.883 497.712 349.1C498.237 350.317 498.5 351.617 498.5 353C498.5 354.383 498.237 355.683 497.712 356.9C497.187 358.117 496.475 359.175 495.575 360.075C494.675 360.975 493.617 361.687 492.4 362.212C491.183 362.737 489.883 363 488.5 363Z" fill="#FBA9A9"/>
</g>
<rect width="87" height="48" transform="translate(532 329)" fill="#F5FFF8"/>
<mask id="mask22_759_57293" style="mask-type:alpha" maskUnits="userSpaceOnUse" x="563" y="341" width="25" height="24">
<rect x="563.5" y="341" width="24" height="24" fill="#D9D9D9"/>
</mask>
<g mask="url(#mask22_759_57293)">
<path d="M574.1 357.6L581.15 350.55L579.75 349.15L574.1 354.8L571.25 351.95L569.85 353.35L574.1 357.6ZM575.5 363C574.117 363 572.817 362.737 571.6 362.212C570.383 361.687 569.325 360.975 568.425 360.075C567.525 359.175 566.813 358.117 566.288 356.9C565.762 355.683 565.5 354.383 565.5 353C565.5 351.617 565.762 350.317 566.288 349.1C566.813 347.883 567.525 346.825 568.425 345.925C569.325 345.025 570.383 344.313 571.6 343.788C572.817 343.262 574.117 343 575.5 343C576.883 343 578.183 343.262 579.4 343.788C580.617 344.313 581.675 345.025 582.575 345.925C583.475 346.825 584.187 347.883 584.712 349.1C585.237 350.317 585.5 351.617 585.5 353C585.5 354.383 585.237 355.683 584.712 356.9C584.187 358.117 583.475 359.175 582.575 360.075C581.675 360.975 580.617 361.687 579.4 362.212C578.183 362.737 576.883 363 575.5 363Z" fill="#00A54F"/>
</g>
<rect width="87" height="48" transform="translate(619 329)" fill="#F5FFF8"/>
<mask id="mask23_759_57293" style="mask-type:alpha" maskUnits="userSpaceOnUse" x="650" y="341" width="25" height="24">
<rect x="650.5" y="341" width="24" height="24" fill="#D9D9D9"/>
</mask>
<g mask="url(#mask23_759_57293)">
<path d="M661.1 357.6L668.15 350.55L666.75 349.15L661.1 354.8L658.25 351.95L656.85 353.35L661.1 357.6ZM662.5 363C661.117 363 659.817 362.737 658.6 362.212C657.383 361.687 656.325 360.975 655.425 360.075C654.525 359.175 653.813 358.117 653.288 356.9C652.762 355.683 652.5 354.383 652.5 353C652.5 351.617 652.762 350.317 653.288 349.1C653.813 347.883 654.525 346.825 655.425 345.925C656.325 345.025 657.383 344.313 658.6 343.788C659.817 343.262 661.117 343 662.5 343C663.883 343 665.183 343.262 666.4 343.788C667.617 344.313 668.675 345.025 669.575 345.925C670.475 346.825 671.187 347.883 671.712 349.1C672.237 350.317 672.5 351.617 672.5 353C672.5 354.383 672.237 355.683 671.712 356.9C671.187 358.117 670.475 359.175 669.575 360.075C668.675 360.975 667.617 361.687 666.4 362.212C665.183 362.737 663.883 363 662.5 363Z" fill="#00A54F"/>
</g>
<path d="M71.8 406.12C71.068 406.12 70.468 405.88 70.048 405.412L70.492 404.284C70.78 404.584 71.128 404.716 71.476 404.716C72.076 404.716 72.436 404.344 72.436 403.78V397.12H74.128V404.08C74.128 405.304 73.18 406.12 71.8 406.12ZM82.0451 402.664C82.0451 402.892 82.0211 403.156 81.9971 403.348H77.3171C77.4371 404.26 77.9171 404.836 78.8651 404.836C79.5251 404.836 80.0651 404.536 80.4491 404.068L81.7091 404.704C81.1331 405.568 80.1131 406.12 78.8891 406.12C76.9091 406.12 75.5891 404.8 75.5891 402.808C75.5891 400.768 76.8731 399.412 78.8171 399.412C80.7491 399.412 82.0451 400.708 82.0451 402.664ZM78.8171 400.696C77.9531 400.696 77.4491 401.26 77.3171 402.244H80.3291C80.2091 401.26 79.6931 400.696 78.8171 400.696ZM85.4448 406.12C84.4608 406.12 83.5848 405.868 82.9968 405.352L83.6088 404.368C84.2208 404.728 84.8328 404.848 85.4688 404.848C86.0688 404.848 86.4768 404.596 86.4768 404.2C86.4768 403.804 86.0208 403.588 85.3728 403.42L84.8328 403.276C83.7408 402.988 82.9968 402.568 82.9968 401.548C82.9968 400.264 84.0048 399.412 85.5408 399.412C86.5128 399.412 87.3408 399.616 87.9768 400.048L87.2928 401.116C86.7768 400.828 86.2248 400.696 85.6488 400.696C85.0608 400.696 84.6528 400.912 84.6528 401.284C84.6528 401.668 85.0608 401.848 85.6248 401.992L86.1648 402.148C87.2688 402.436 88.1448 402.94 88.1448 404.08C88.1448 405.304 87.0648 406.12 85.4448 406.12ZM91.5502 406.12C90.5662 406.12 89.6902 405.868 89.1022 405.352L89.7142 404.368C90.3262 404.728 90.9382 404.848 91.5742 404.848C92.1742 404.848 92.5822 404.596 92.5822 404.2C92.5822 403.804 92.1262 403.588 91.4782 403.42L90.9382 403.276C89.8462 402.988 89.1022 402.568 89.1022 401.548C89.1022 400.264 90.1102 399.412 91.6462 399.412C92.6182 399.412 93.4462 399.616 94.0822 400.048L93.3982 401.116C92.8822 400.828 92.3302 400.696 91.7542 400.696C91.1662 400.696 90.7582 400.912 90.7582 401.284C90.7582 401.668 91.1662 401.848 91.7302 401.992L92.2702 402.148C93.3742 402.436 94.2502 402.94 94.2502 404.08C94.2502 405.304 93.1702 406.12 91.5502 406.12ZM96.3943 398.476C95.8303 398.476 95.4223 398.08 95.4223 397.516C95.4223 396.952 95.8303 396.544 96.3943 396.544C96.9583 396.544 97.3543 396.952 97.3543 397.516C97.3543 398.08 96.9583 398.476 96.3943 398.476ZM95.5783 406V399.532H97.2103V406H95.5783ZM101.943 406.12C99.879 406.12 98.499 404.776 98.499 402.76C98.499 400.756 99.891 399.412 101.979 399.412C102.843 399.412 103.599 399.688 104.199 400.156L103.275 401.26C102.939 400.972 102.543 400.804 102.003 400.804C100.923 400.804 100.191 401.584 100.191 402.76C100.191 403.936 100.911 404.716 102.015 404.716C102.615 404.716 103.107 404.536 103.479 404.14L104.403 405.22C103.791 405.832 102.915 406.12 101.943 406.12ZM108.013 399.412C109.669 399.412 110.785 400.408 110.785 401.932V406H109.213L109.177 405.076C108.745 405.748 108.001 406.12 107.209 406.12C105.865 406.12 104.965 405.316 104.965 404.116C104.965 402.868 106.069 402.052 107.725 402.052C108.169 402.052 108.661 402.1 109.153 402.196V402.076C109.153 401.212 108.577 400.696 107.593 400.696C106.981 400.696 106.489 400.876 106.081 401.212L105.373 400.252C106.069 399.688 106.885 399.412 108.013 399.412ZM107.677 404.956C108.433 404.956 109.141 404.356 109.153 403.3C108.733 403.216 108.301 403.168 107.929 403.168C107.161 403.168 106.669 403.528 106.669 404.08C106.669 404.608 107.017 404.956 107.677 404.956ZM115.956 406.12C115.224 406.12 114.624 405.88 114.204 405.412L114.648 404.284C114.936 404.584 115.284 404.716 115.632 404.716C116.232 404.716 116.592 404.344 116.592 403.78V397.12H118.284V404.08C118.284 405.304 117.336 406.12 115.956 406.12ZM123.201 406.12C121.125 406.12 119.733 404.776 119.733 402.76C119.733 400.756 121.125 399.412 123.201 399.412C125.265 399.412 126.657 400.756 126.657 402.76C126.657 404.776 125.265 406.12 123.201 406.12ZM123.201 404.716C124.257 404.716 124.965 403.936 124.965 402.76C124.965 401.584 124.257 400.804 123.201 400.804C122.133 400.804 121.425 401.584 121.425 402.76C121.425 403.936 122.133 404.716 123.201 404.716ZM131.653 399.412C133.201 399.412 134.233 400.42 134.233 401.932V406H132.601V402.196C132.601 401.356 132.001 400.804 131.089 400.804C130.177 400.804 129.577 401.356 129.577 402.196V406H127.945V396.64H129.577V400.312C130.069 399.712 130.813 399.412 131.653 399.412ZM139.516 399.412C141.064 399.412 142.096 400.42 142.096 401.932V406H140.464V402.196C140.464 401.356 139.864 400.804 138.952 400.804C138.04 400.804 137.44 401.356 137.44 402.196V406H135.808V399.532H137.38L137.404 400.348C137.896 399.736 138.652 399.412 139.516 399.412ZM145.82 406.12C144.836 406.12 143.96 405.868 143.372 405.352L143.984 404.368C144.596 404.728 145.208 404.848 145.844 404.848C146.444 404.848 146.852 404.596 146.852 404.2C146.852 403.804 146.396 403.588 145.748 403.42L145.208 403.276C144.116 402.988 143.372 402.568 143.372 401.548C143.372 400.264 144.38 399.412 145.916 399.412C146.888 399.412 147.716 399.616 148.352 400.048L147.668 401.116C147.152 400.828 146.6 400.696 146.024 400.696C145.436 400.696 145.028 400.912 145.028 401.284C145.028 401.668 145.436 401.848 146 401.992L146.54 402.148C147.644 402.436 148.52 402.94 148.52 404.08C148.52 405.304 147.44 406.12 145.82 406.12ZM152.932 406.12C150.856 406.12 149.464 404.776 149.464 402.76C149.464 400.756 150.856 399.412 152.932 399.412C154.996 399.412 156.388 400.756 156.388 402.76C156.388 404.776 154.996 406.12 152.932 406.12ZM152.932 404.716C153.988 404.716 154.696 403.936 154.696 402.76C154.696 401.584 153.988 400.804 152.932 400.804C151.864 400.804 151.156 401.584 151.156 402.76C151.156 403.936 151.864 404.716 152.932 404.716ZM161.384 399.412C162.932 399.412 163.964 400.42 163.964 401.932V406H162.332V402.196C162.332 401.356 161.732 400.804 160.82 400.804C159.908 400.804 159.308 401.356 159.308 402.196V406H157.676V399.532H159.248L159.272 400.348C159.764 399.736 160.52 399.412 161.384 399.412Z" fill="#5D5C64"/>
<rect width="87" height="48" transform="translate(184 377)" fill="#F5FFF8"/>
<mask id="mask24_759_57293" style="mask-type:alpha" maskUnits="userSpaceOnUse" x="215" y="389" width="25" height="24">
<rect x="215.5" y="389" width="24" height="24" fill="#D9D9D9"/>
</mask>
<g mask="url(#mask24_759_57293)">
<path d="M226.1 405.6L233.15 398.55L231.75 397.15L226.1 402.8L223.25 399.95L221.85 401.35L226.1 405.6ZM227.5 411C226.117 411 224.817 410.737 223.6 410.212C222.383 409.687 221.325 408.975 220.425 408.075C219.525 407.175 218.813 406.117 218.288 404.9C217.762 403.683 217.5 402.383 217.5 401C217.5 399.617 217.762 398.317 218.288 397.1C218.813 395.883 219.525 394.825 220.425 393.925C221.325 393.025 222.383 392.313 223.6 391.788C224.817 391.262 226.117 391 227.5 391C228.883 391 230.183 391.262 231.4 391.788C232.617 392.313 233.675 393.025 234.575 393.925C235.475 394.825 236.187 395.883 236.712 397.1C237.237 398.317 237.5 399.617 237.5 401C237.5 402.383 237.237 403.683 236.712 404.9C236.187 406.117 235.475 407.175 234.575 408.075C233.675 408.975 232.617 409.687 231.4 410.212C230.183 410.737 228.883 411 227.5 411Z" fill="#00A54F"/>
</g>
<rect width="87" height="48" transform="translate(271 377)" fill="#FFF5F5"/>
<mask id="mask25_759_57293" style="mask-type:alpha" maskUnits="userSpaceOnUse" x="302" y="389" width="25" height="24">
<rect x="302.5" y="389" width="24" height="24" fill="#D9D9D9"/>
</mask>
<g mask="url(#mask25_759_57293)">
<path d="M310.9 406L314.5 402.4L318.1 406L319.5 404.6L315.9 401L319.5 397.4L318.1 396L314.5 399.6L310.9 396L309.5 397.4L313.1 401L309.5 404.6L310.9 406ZM314.5 411C313.117 411 311.817 410.737 310.6 410.212C309.383 409.687 308.325 408.975 307.425 408.075C306.525 407.175 305.813 406.117 305.288 404.9C304.762 403.683 304.5 402.383 304.5 401C304.5 399.617 304.762 398.317 305.288 397.1C305.813 395.883 306.525 394.825 307.425 393.925C308.325 393.025 309.383 392.313 310.6 391.788C311.817 391.262 313.117 391 314.5 391C315.883 391 317.183 391.262 318.4 391.788C319.617 392.313 320.675 393.025 321.575 393.925C322.475 394.825 323.187 395.883 323.712 397.1C324.237 398.317 324.5 399.617 324.5 401C324.5 402.383 324.237 403.683 323.712 404.9C323.187 406.117 322.475 407.175 321.575 408.075C320.675 408.975 319.617 409.687 318.4 410.212C317.183 410.737 315.883 411 314.5 411Z" fill="#FBA9A9"/>
</g>
<rect width="87" height="48" transform="translate(358 377)" fill="#F5FFF8"/>
<mask id="mask26_759_57293" style="mask-type:alpha" maskUnits="userSpaceOnUse" x="389" y="389" width="25" height="24">
<rect x="389.5" y="389" width="24" height="24" fill="#D9D9D9"/>
</mask>
<g mask="url(#mask26_759_57293)">
<path d="M400.1 405.6L407.15 398.55L405.75 397.15L400.1 402.8L397.25 399.95L395.85 401.35L400.1 405.6ZM401.5 411C400.117 411 398.817 410.737 397.6 410.212C396.383 409.687 395.325 408.975 394.425 408.075C393.525 407.175 392.813 406.117 392.288 404.9C391.762 403.683 391.5 402.383 391.5 401C391.5 399.617 391.762 398.317 392.288 397.1C392.813 395.883 393.525 394.825 394.425 393.925C395.325 393.025 396.383 392.313 397.6 391.788C398.817 391.262 400.117 391 401.5 391C402.883 391 404.183 391.262 405.4 391.788C406.617 392.313 407.675 393.025 408.575 393.925C409.475 394.825 410.187 395.883 410.712 397.1C411.237 398.317 411.5 399.617 411.5 401C411.5 402.383 411.237 403.683 410.712 404.9C410.187 406.117 409.475 407.175 408.575 408.075C407.675 408.975 406.617 409.687 405.4 410.212C404.183 410.737 402.883 411 401.5 411Z" fill="#00A54F"/>
</g>
<mask id="mask27_759_57293" style="mask-type:alpha" maskUnits="userSpaceOnUse" x="476" y="389" width="25" height="24">
<rect x="476.5" y="389" width="24" height="24" fill="#D9D9D9"/>
</mask>
<g mask="url(#mask27_759_57293)">
<path d="M483.5 402H493.5V400H483.5V402ZM488.5 411C487.117 411 485.817 410.737 484.6 410.212C483.383 409.687 482.325 408.975 481.425 408.075C480.525 407.175 479.813 406.117 479.288 404.9C478.762 403.683 478.5 402.383 478.5 401C478.5 399.617 478.762 398.317 479.288 397.1C479.813 395.883 480.525 394.825 481.425 393.925C482.325 393.025 483.383 392.313 484.6 391.788C485.817 391.262 487.117 391 488.5 391C489.883 391 491.183 391.262 492.4 391.788C493.617 392.313 494.675 393.025 495.575 393.925C496.475 394.825 497.187 395.883 497.712 397.1C498.237 398.317 498.5 399.617 498.5 401C498.5 402.383 498.237 403.683 497.712 404.9C497.187 406.117 496.475 407.175 495.575 408.075C494.675 408.975 493.617 409.687 492.4 410.212C491.183 410.737 489.883 411 488.5 411Z" fill="#E0E0E5"/>
</g>
<rect width="87" height="48" transform="translate(532 377)" fill="#F5FFF8"/>
<mask id="mask28_759_57293" style="mask-type:alpha" maskUnits="userSpaceOnUse" x="563" y="389" width="25" height="24">
<rect x="563.5" y="389" width="24" height="24" fill="#D9D9D9"/>
</mask>
<g mask="url(#mask28_759_57293)">
<path d="M574.1 405.6L581.15 398.55L579.75 397.15L574.1 402.8L571.25 399.95L569.85 401.35L574.1 405.6ZM575.5 411C574.117 411 572.817 410.737 571.6 410.212C570.383 409.687 569.325 408.975 568.425 408.075C567.525 407.175 566.813 406.117 566.288 404.9C565.762 403.683 565.5 402.383 565.5 401C565.5 399.617 565.762 398.317 566.288 397.1C566.813 395.883 567.525 394.825 568.425 393.925C569.325 393.025 570.383 392.313 571.6 391.788C572.817 391.262 574.117 391 575.5 391C576.883 391 578.183 391.262 579.4 391.788C580.617 392.313 581.675 393.025 582.575 393.925C583.475 394.825 584.187 395.883 584.712 397.1C585.237 398.317 585.5 399.617 585.5 401C585.5 402.383 585.237 403.683 584.712 404.9C584.187 406.117 583.475 407.175 582.575 408.075C581.675 408.975 580.617 409.687 579.4 410.212C578.183 410.737 576.883 411 575.5 411Z" fill="#00A54F"/>
</g>
<rect width="87" height="48" transform="translate(619 377)" fill="#FFF5F5"/>
<mask id="mask29_759_57293" style="mask-type:alpha" maskUnits="userSpaceOnUse" x="650" y="389" width="25" height="24">
<rect x="650.5" y="389" width="24" height="24" fill="#D9D9D9"/>
</mask>
<g mask="url(#mask29_759_57293)">
<path d="M658.9 406L662.5 402.4L666.1 406L667.5 404.6L663.9 401L667.5 397.4L666.1 396L662.5 399.6L658.9 396L657.5 397.4L661.1 401L657.5 404.6L658.9 406ZM662.5 411C661.117 411 659.817 410.737 658.6 410.212C657.383 409.687 656.325 408.975 655.425 408.075C654.525 407.175 653.813 406.117 653.288 404.9C652.762 403.683 652.5 402.383 652.5 401C652.5 399.617 652.762 398.317 653.288 397.1C653.813 395.883 654.525 394.825 655.425 393.925C656.325 393.025 657.383 392.313 658.6 391.788C659.817 391.262 661.117 391 662.5 391C663.883 391 665.183 391.262 666.4 391.788C667.617 392.313 668.675 393.025 669.575 393.925C670.475 394.825 671.187 395.883 671.712 397.1C672.237 398.317 672.5 399.617 672.5 401C672.5 402.383 672.237 403.683 671.712 404.9C671.187 406.117 670.475 407.175 669.575 408.075C668.675 408.975 667.617 409.687 666.4 410.212C665.183 410.737 663.883 411 662.5 411Z" fill="#FBA9A9"/>
</g>
</g>
</g>
</g>
<rect x="60.5" y="119.5" width="592" height="304" rx="14.5" stroke="#472AC4"/>
<path d="M464.262 394.378C463.32 395.634 462.737 397.036 462.436 398.477L424.138 369.77L437.524 351.912L475.822 380.621C474.524 381.313 473.341 382.266 472.4 383.522L464.262 394.378Z" fill="#8D9995"/>
<path d="M633.114 503.99L624.976 514.846C621.54 519.43 615.039 520.361 610.455 516.924L466.339 408.899C463.011 406.405 461.638 402.297 462.435 398.477C462.737 397.035 463.319 395.633 464.261 394.378L472.398 383.521C473.34 382.266 474.521 381.313 475.82 380.62C479.263 378.784 483.591 378.949 486.919 381.444L631.035 489.469C635.619 492.905 636.549 499.406 633.114 503.99Z" fill="#484E4C"/>
<path d="M430.83 360.84L437.522 351.912L475.821 380.621C474.523 381.313 473.34 382.266 472.399 383.522L468.333 388.946L428.023 359.525L430.83 360.84Z" fill="#7E8985"/>
<path d="M472.399 383.521C473.341 382.266 474.523 381.313 475.821 380.62C479.264 378.784 483.592 378.949 486.92 381.444L631.035 489.469C635.619 492.905 636.549 499.406 633.114 503.991L628.667 509.923L468.333 388.946L472.399 383.521Z" fill="#3E4342"/>
<path d="M439.044 366.998C399.29 420.033 324.072 430.799 271.037 391.045C218.002 351.291 207.236 276.072 246.99 223.037C286.744 170.002 361.963 159.236 414.998 198.99C468.032 238.744 478.797 313.963 439.044 366.998ZM255.203 229.195C218.85 277.693 228.695 346.478 277.193 382.832C325.692 419.184 394.477 409.339 430.83 360.842C467.182 312.343 457.337 243.558 408.839 207.204C360.341 170.852 291.556 180.697 255.203 229.195Z" fill="#8A999B"/>
<path opacity="0.29" d="M237.234 324.244C221.095 265.822 255.371 205.378 313.793 189.238C372.214 173.099 432.658 207.374 448.798 265.796L237.234 324.244Z" fill="#DCF6FA" fill-opacity="0.6"/>
</g>
<defs>
<filter id="filter0_d_759_57293" x="58" y="117" width="1180" height="317" filterUnits="userSpaceOnUse" color-interpolation-filters="sRGB">
<feFlood flood-opacity="0" result="BackgroundImageFix"/>
<feColorMatrix in="SourceAlpha" type="matrix" values="0 0 0 0 0 0 0 0 0 0 0 0 0 0 0 0 0 0 127 0" result="hardAlpha"/>
<feOffset dx="4" dy="4"/>
<feGaussianBlur stdDeviation="3"/>
<feComposite in2="hardAlpha" operator="out"/>
<feColorMatrix type="matrix" values="0 0 0 0 0 0 0 0 0 0 0 0 0 0 0 0 0 0 0.25 0"/>
<feBlend mode="normal" in2="BackgroundImageFix" result="effect1_dropShadow_759_57293"/>
<feBlend mode="normal" in="SourceGraphic" in2="effect1_dropShadow_759_57293" result="shape"/>
</filter>
<linearGradient id="paint0_linear_759_57293" x1="610" y1="440" x2="610" y2="519" gradientUnits="userSpaceOnUse">
<stop stop-color="#472AC4"/>
<stop offset="1" stop-color="#472AC4" stop-opacity="0.1"/>
</linearGradient>
<linearGradient id="paint1_linear_759_57293" x1="176.5" y1="440" x2="176.5" y2="547" gradientUnits="userSpaceOnUse">
<stop stop-color="#472AC4"/>
<stop offset="1" stop-color="#472AC4" stop-opacity="0.1"/>
</linearGradient>
<clipPath id="clip0_759_57293">
<rect width="713" height="608" fill="white"/>
</clipPath>
<clipPath id="clip1_759_57293">
<rect x="60" y="119" width="593" height="305" rx="15" fill="white"/>
</clipPath>
<clipPath id="clip2_759_57293">
<rect x="60" y="119" width="1168" height="305" rx="15" fill="white"/>
</clipPath>
</defs>
</svg>
