<svg width="600" height="600" viewBox="0 0 600 600" fill="none" xmlns="http://www.w3.org/2000/svg">
<g clip-path="url(#clip0_760_57607)">
<rect width="600" height="600" fill="white"/>
<rect width="300" height="300" fill="#472AC4"/>
<mask id="mask0_760_57607" style="mask-type:alpha" maskUnits="userSpaceOnUse" x="90" y="90" width="120" height="120">
<rect x="90" y="90" width="120" height="120" fill="#D9D9D9"/>
</mask>
<g mask="url(#mask0_760_57607)">
<path d="M140 105C138.583 105 137.396 104.521 136.437 103.562C135.479 102.604 135 101.417 135 100C135 98.5833 135.479 97.3958 136.437 96.4375C137.396 95.4792 138.583 95 140 95H160C161.417 95 162.604 95.4792 163.563 96.4375C164.521 97.3958 165 98.5833 165 100C165 101.417 164.521 102.604 163.563 103.562C162.604 104.521 161.417 105 160 105H140ZM150 160C151.417 160 152.604 159.521 153.563 158.563C154.521 157.604 155 156.417 155 155V135C155 133.583 154.521 132.396 153.563 131.437C152.604 130.479 151.417 130 150 130C148.583 130 147.396 130.479 146.438 131.437C145.479 132.396 145 133.583 145 135V155C145 156.417 145.479 157.604 146.438 158.563C147.396 159.521 148.583 160 150 160ZM150 200C143.833 200 138.021 198.813 132.563 196.438C127.104 194.063 122.333 190.833 118.25 186.75C114.167 182.667 110.938 177.896 108.563 172.438C106.188 166.979 105 161.167 105 155C105 148.833 106.188 143.021 108.563 137.562C110.938 132.104 114.167 127.333 118.25 123.25C122.333 119.167 127.104 115.938 132.563 113.563C138.021 111.188 143.833 110 150 110C155.167 110 160.125 110.833 164.875 112.5C169.625 114.167 174.083 116.583 178.25 119.75L181.75 116.25C182.667 115.333 183.833 114.875 185.25 114.875C186.667 114.875 187.833 115.333 188.75 116.25C189.667 117.167 190.125 118.333 190.125 119.75C190.125 121.167 189.667 122.333 188.75 123.25L185.25 126.75C188.417 130.917 190.833 135.375 192.5 140.125C194.167 144.875 195 149.833 195 155C195 161.167 193.813 166.979 191.438 172.438C189.063 177.896 185.833 182.667 181.75 186.75C177.667 190.833 172.896 194.063 167.438 196.438C161.979 198.813 156.167 200 150 200ZM150 190C159.667 190 167.917 186.583 174.75 179.75C181.583 172.917 185 164.667 185 155C185 145.333 181.583 137.083 174.75 130.25C167.917 123.417 159.667 120 150 120C140.333 120 132.083 123.417 125.25 130.25C118.417 137.083 115 145.333 115 155C115 164.667 118.417 172.917 125.25 179.75C132.083 186.583 140.333 190 150 190Z" fill="white"/>
</g>
<rect width="300" height="300" transform="translate(0 300)" fill="#11132C"/>
<mask id="mask1_760_57607" style="mask-type:alpha" maskUnits="userSpaceOnUse" x="90" y="390" width="120" height="120">
<rect x="90" y="390" width="120" height="120" fill="#D9D9D9"/>
</mask>
<g mask="url(#mask1_760_57607)">
<path d="M140 485V475C133.083 475 127.188 472.563 122.312 467.688C117.437 462.813 115 456.917 115 450C115 444.917 116.396 440.292 119.188 436.125C121.979 431.959 125.75 428.917 130.5 427C131.167 424.167 132.646 421.875 134.937 420.125C137.229 418.375 139.833 417.5 142.75 417.5L141.625 414.375C141.208 413.042 141.271 411.771 141.813 410.563C142.354 409.354 143.292 408.5 144.625 408H144.75C144.25 406.75 144.292 405.521 144.875 404.313C145.458 403.104 146.458 402.25 147.875 401.75C149.125 401.334 150.354 401.396 151.562 401.938C152.771 402.479 153.583 403.417 154 404.75C155.333 404.25 156.625 404.292 157.875 404.875C159.125 405.459 160 406.417 160.5 407.75L170.75 435.875C171.25 437.209 171.229 438.479 170.687 439.688C170.146 440.896 169.208 441.75 167.875 442.25H167.75C168.25 443.584 168.208 444.875 167.625 446.125C167.042 447.375 166.042 448.25 164.625 448.75C163.375 449.167 162.146 449.104 160.938 448.563C159.729 448.021 158.917 447.084 158.5 445.75C157.167 446.25 155.875 446.209 154.625 445.625C153.375 445.042 152.5 444.084 152 442.75L150.75 439.25C149.5 440.417 148.062 441.292 146.437 441.875C144.812 442.459 143.167 442.667 141.5 442.5C139.667 442.334 137.958 441.771 136.375 440.813C134.792 439.854 133.417 438.667 132.25 437.25C130 438.584 128.229 440.375 126.938 442.625C125.646 444.875 125 447.334 125 450C125 454.167 126.458 457.709 129.375 460.625C132.292 463.542 135.833 465 140 465H175C176.417 465 177.604 465.479 178.563 466.438C179.521 467.396 180 468.584 180 470C180 471.417 179.521 472.604 178.563 473.563C177.604 474.521 176.417 475 175 475H155V485H180C181.417 485 182.604 485.479 183.563 486.438C184.521 487.396 185 488.584 185 490C185 491.417 184.521 492.604 183.563 493.563C182.604 494.521 181.417 495 180 495H120C118.583 495 117.396 494.521 116.437 493.563C115.479 492.604 115 491.417 115 490C115 488.584 115.479 487.396 116.437 486.438C117.396 485.479 118.583 485 120 485H140ZM158.25 437.75L162.75 436L154.25 412.5L149.5 414.25L158.25 437.75ZM142.5 435C143.917 435 145.104 434.521 146.063 433.563C147.021 432.604 147.5 431.417 147.5 430C147.5 428.584 147.021 427.396 146.063 426.438C145.104 425.479 143.917 425 142.5 425C141.083 425 139.896 425.479 138.937 426.438C137.979 427.396 137.5 428.584 137.5 430C137.5 431.417 137.979 432.604 138.937 433.563C139.896 434.521 141.083 435 142.5 435Z" fill="white"/>
</g>
<rect width="300" height="300" transform="translate(300)" fill="#4AC7E9"/>
<mask id="mask2_760_57607" style="mask-type:alpha" maskUnits="userSpaceOnUse" x="390" y="90" width="120" height="120">
<rect x="390" y="90" width="120" height="120" fill="#D9D9D9"/>
</mask>
<g mask="url(#mask2_760_57607)">
<path d="M425.5 146.75C426.667 144.416 427.875 142.166 429.125 140C430.375 137.833 431.75 135.666 433.25 133.5L426.25 132.125L415.75 142.625L425.5 146.75ZM485.75 112.375C479.917 112.541 473.688 114.25 467.063 117.5C460.438 120.75 454.417 125.083 449 130.5C445.5 134 442.375 137.75 439.625 141.75C436.875 145.75 434.833 149.5 433.5 153L447.75 167.125C451.25 165.791 455 163.75 459 161C463 158.25 466.75 155.125 470.25 151.625C475.667 146.208 480 140.208 483.25 133.625C486.5 127.041 488.208 120.833 488.375 115C488.375 114.666 488.312 114.333 488.187 114C488.062 113.666 487.875 113.375 487.625 113.125C487.375 112.875 487.083 112.687 486.75 112.562C486.417 112.437 486.083 112.375 485.75 112.375ZM458.25 142.375C456.333 140.458 455.375 138.104 455.375 135.312C455.375 132.52 456.333 130.166 458.25 128.25C460.167 126.333 462.542 125.375 465.375 125.375C468.208 125.375 470.583 126.333 472.5 128.25C474.417 130.166 475.375 132.52 475.375 135.312C475.375 138.104 474.417 140.458 472.5 142.375C470.583 144.291 468.208 145.25 465.375 145.25C462.542 145.25 460.167 144.291 458.25 142.375ZM454 175.125L458.125 185L468.625 174.5L467.25 167.5C465.083 169 462.917 170.354 460.75 171.562C458.583 172.77 456.333 173.958 454 175.125ZM497.875 108.375C498.542 117.541 497.042 126.479 493.375 135.187C489.708 143.895 483.917 152.208 476 160.125L478.5 172.5C478.833 174.166 478.75 175.791 478.25 177.375C477.75 178.958 476.917 180.333 475.75 181.5L460 197.25C458.75 198.5 457.25 198.979 455.5 198.687C453.75 198.395 452.542 197.416 451.875 195.75L444.25 177.875L422.875 156.5L405 148.875C403.333 148.208 402.333 147 402 145.25C401.667 143.5 402.125 142 403.375 140.75L419.125 125C420.292 123.833 421.688 123 423.313 122.5C424.938 122 426.583 121.916 428.25 122.25L440.625 124.75C448.542 116.833 456.854 111.041 465.562 107.375C474.271 103.708 483.208 102.208 492.375 102.875C493.042 102.958 493.708 103.145 494.375 103.437C495.042 103.729 495.625 104.125 496.125 104.625C496.625 105.125 497.021 105.708 497.313 106.375C497.604 107.041 497.792 107.708 497.875 108.375ZM409.625 169.875C412.542 166.958 416.104 165.479 420.313 165.437C424.521 165.395 428.083 166.833 431 169.75C433.917 172.666 435.354 176.229 435.313 180.437C435.271 184.645 433.792 188.208 430.875 191.125C426.875 195.125 422.146 197.5 416.688 198.25C411.229 199 405.75 199.75 400.25 200.5C401 195 401.75 189.52 402.5 184.062C403.25 178.604 405.625 173.875 409.625 169.875ZM416.75 176.875C415.333 178.291 414.354 180 413.813 182C413.271 184 412.833 186.041 412.5 188.125C414.583 187.791 416.625 187.375 418.625 186.875C420.625 186.375 422.333 185.416 423.75 184C424.75 183 425.292 181.791 425.375 180.375C425.458 178.958 425 177.75 424 176.75C423 175.75 421.792 175.27 420.375 175.312C418.958 175.354 417.75 175.875 416.75 176.875Z" fill="white"/>
</g>
<rect width="300" height="300" transform="translate(300 300)" fill="#9747FF"/>
<mask id="mask3_760_57607" style="mask-type:alpha" maskUnits="userSpaceOnUse" x="390" y="390" width="120" height="120">
<rect x="390" y="390" width="120" height="120" fill="#D9D9D9"/>
</mask>
<g mask="url(#mask3_760_57607)">
<path d="M462.5 480C459 480 456.042 478.792 453.625 476.375C451.208 473.958 450 471 450 467.5C450 464 451.208 461.042 453.625 458.625C456.042 456.208 459 455 462.5 455C466 455 468.958 456.208 471.375 458.625C473.792 461.042 475 464 475 467.5C475 471 473.792 473.958 471.375 476.375C468.958 478.792 466 480 462.5 480ZM415 500C412.25 500 409.896 499.021 407.938 497.063C405.979 495.104 405 492.75 405 490V420C405 417.25 405.979 414.896 407.938 412.938C409.896 410.979 412.25 410 415 410H420V405C420 403.583 420.479 402.396 421.438 401.437C422.396 400.479 423.583 400 425 400C426.417 400 427.604 400.479 428.563 401.437C429.521 402.396 430 403.583 430 405V410H470V405C470 403.583 470.479 402.396 471.438 401.437C472.396 400.479 473.583 400 475 400C476.417 400 477.604 400.479 478.563 401.437C479.521 402.396 480 403.583 480 405V410H485C487.75 410 490.104 410.979 492.063 412.938C494.021 414.896 495 417.25 495 420V490C495 492.75 494.021 495.104 492.063 497.063C490.104 499.021 487.75 500 485 500H415ZM415 490H485V440H415V490ZM415 430H485V420H415V430Z" fill="white"/>
</g>
</g>
<defs>
<clipPath id="clip0_760_57607">
<rect width="600" height="600" fill="white"/>
</clipPath>
</defs>
</svg>
